<?xml version="1.0" encoding="UTF-8"?>
<svg version="1.1" xmlns="http://www.w3.org/2000/svg" width="768" height="768">
<path d="M0 0 C52.8 0 105.6 0 160 0 C160 10.56 160 21.12 160 32 C117.76 32 75.52 32 32 32 C32 63.68 32 95.36 32 128 C74.24 128 116.48 128 160 128 C160 149.12 160 170.24 160 192 C149.44 192 138.88 192 128 192 C128 181.44 128 170.88 128 160 C96.32 160 64.64 160 32 160 C32 223.36 32 286.72 32 352 C21.44 352 10.88 352 0 352 C0 235.84 0 119.68 0 0 Z " fill="#00FFFF" transform="translate(160,224)"/>
<path d="M0 0 C10.56 0 21.12 0 32 0 C32 63.36 32 126.72 32 192 C-10.24 192 -52.48 192 -96 192 C-96 181.44 -96 170.88 -96 160 C-64.32 160 -32.64 160 0 160 C0 138.88 0 117.76 0 96 C-31.68 96 -63.36 96 -96 96 C-96 85.44 -96 74.88 -96 64 C-64.32 64 -32.64 64 0 64 C0 42.88 0 21.76 0 0 Z " fill="#00FFFF" transform="translate(512,384)"/>
<path d="M0 0 C10.56 0 21.12 0 32 0 C32 73.92 32 147.84 32 224 C21.44 224 10.88 224 0 224 C0 150.08 0 76.16 0 0 Z " fill="#00FFFF" transform="translate(576,352)"/>
<path d="M0 0 C10.56 0 21.12 0 32 0 C32 52.8 32 105.6 32 160 C21.44 160 10.88 160 0 160 C0 107.2 0 54.4 0 0 Z " fill="#00FFFF" transform="translate(320,416)"/>
<path d="M0 0 C31.68 0 63.36 0 96 0 C96 10.56 96 21.12 96 32 C64.32 32 32.64 32 0 32 C0 21.44 0 10.88 0 0 Z " fill="#00FFFF" transform="translate(416,352)"/>
<path d="M0 0 C10.56 0 21.12 0 32 0 C32 31.68 32 63.36 32 96 C21.44 96 10.88 96 0 96 C0 64.32 0 32.64 0 0 Z " fill="#00FFFF" transform="translate(320,256)"/>
<path d="M0 0 C10.56 0 21.12 0 32 0 C32 21.12 32 42.24 32 64 C21.44 64 10.88 64 0 64 C0 42.88 0 21.76 0 0 Z " fill="#00FFFF" transform="translate(384,480)"/>
<path d="M0 0 C10.56 0 21.12 0 32 0 C32 10.56 32 21.12 32 32 C21.44 32 10.88 32 0 32 C0 21.44 0 10.88 0 0 Z " fill="#00FFFF" transform="translate(384,384)"/>
<path d="M0 0 C10.56 0 21.12 0 32 0 C32 10.56 32 21.12 32 32 C21.44 32 10.88 32 0 32 C0 21.44 0 10.88 0 0 Z " fill="#00FFFF" transform="translate(576,288)"/>
</svg>
